<svg xmlns="http://www.w3.org/2000/svg" width="148" height="148" preserveAspectRatio="xMidYMid meet" version="1.0" viewBox="0 0 111 111"><metadata>Created by potrace 1.11, written by Peter Selinger 2001-2013</metadata><g fill="#000" stroke="none"><path d="M100 1025 c-22 -46 -40 -88 -40 -92 0 -8 64 -83 190 -223 100 -112 130 -147 130 -154 0 -6 -16 -26 -96 -115 -141 -158 -224 -254 -224 -261 0 -4 18 -46 39 -93 l39 -85 417 2 416 1 40 89 c39 88 39 90 21 110 -10 12 -34 39 -54 61 -19 22 -50 57 -69 77 l-34 38 -67 -58 c-37 -31 -67 -59 -67 -62 -1 -3 13 -20 30 -37 16 -18 29 -34 27 -34 -8 -4 -488 -4 -488 0 0 3 82 99 125 147 5 6 25 27 43 47 l32 36 0 137 0 136 -92 106 c-51 59 -96 108 -100 110 -33 15 25 19 237 19 135 0 245 -2 245 -3 0 -2 -14 -18 -30 -36 l-31 -33 63 -57 c35 -32 68 -57 73 -58 6 0 47 43 93 95 l83 95 -39 87 -40 88 -416 3 -417 2 -39 -85z" transform="translate(0.000000,111.000000) scale(0.100000,-0.100000)"/></g></svg>